<svg xmlns="http://www.w3.org/2000/svg" x="0px" y="0px" width="52" height="52" viewBox="0 0 172 172" style=" fill:#000000;"><g fill="none" fill-rule="nonzero" stroke="none" stroke-width="1" stroke-linecap="butt" stroke-linejoin="miter" stroke-miterlimit="10" stroke-dasharray="" stroke-dashoffset="0" font-family="none" font-weight="none" font-size="none" text-anchor="none" style="mix-blend-mode: normal"><path d="M0,172v-172h172v172z" fill="none"></path><g id="original-icon" fill="#e74c3c"><path d="M118.19832,25.73798c-13.85096,0 -25.71214,9.8714 -32.22416,16.66767c-6.48618,-6.79627 -18.32151,-16.66767 -32.17247,-16.66767c-23.90325,0 -40.57092,16.64183 -40.57092,40.46755c0,26.28065 20.72476,43.25841 40.7518,59.66767c9.45794,7.7524 19.25181,15.76322 26.74579,24.67849c1.26622,1.47296 3.1268,2.32572 5.0649,2.32572h0.38762c1.96394,0 3.79868,-0.85276 5.0649,-2.32572c7.51983,-8.91527 17.28786,-16.92608 26.77163,-24.67849c20.02704,-16.40926 40.7518,-33.38702 40.7518,-59.66767c0,-23.82572 -16.66767,-40.46755 -40.57091,-40.46755z"></path></g><path d="" fill="none"></path></g></svg>